<?xml version="1.0" encoding="UTF-8" standalone="no"?>
<!-- Created with Inkscape (http://www.inkscape.org/) -->

<svg
   width="72.32666mm"
   height="129.0464mm"
   viewBox="0 0 72.32666 129.0464"
   version="1.1"
   id="svg5"
   xml:space="preserve"
   xmlns="http://www.w3.org/2000/svg"
   xmlns:svg="http://www.w3.org/2000/svg"><defs
     id="defs2" /><g
     id="layer1"
     transform="translate(-27.873843,-96.489812)"><path
       style="fill:#6886bb;fill-opacity:1;stroke-width:0.264583"
       d="m 100.34381,158.19554 c 0.0816,-0.32742 0.12161,-0.9525 0.0889,-1.38907 -0.0327,-0.43656 -0.0376,-13.33022 -0.011,-28.65257 l 0.0484,-27.85884 1.52135,-0.934017 c 11.26348,-6.915106 13.65968,-8.323112 14.04001,-8.249873 0.41499,0.07992 0.45059,2.430634 0.51308,33.88277 l 0.0671,33.79691 h 13.49274 13.49275 v -30.85482 c 0,-29.387717 -0.0223,-30.848987 -0.4683,-30.732347 -0.56788,0.1485 -15.0834,8.818027 -15.73743,9.399317 -0.38931,0.34602 -0.46302,0.88688 -0.46302,3.39761 0,1.64235 0.0992,3.0474 0.22044,3.12233 0.12124,0.0749 2.27599,-1.10867 4.78833,-2.63022 2.51235,-1.52155 4.7944,-2.76646 5.07123,-2.76646 0.48971,0 0.50512,0.54247 0.56937,20.04219 0.0363,11.02321 0.0661,21.14806 0.0661,22.49969 9e-5,1.89684 -0.0904,2.51463 -0.39676,2.70793 -0.55258,0.34867 -13.9156,0.33458 -14.56947,-0.0154 -0.50212,-0.26871 -0.51178,-0.95173 -0.51178,-36.2038 0,-19.761457 -0.0798,-36.009722 -0.17731,-36.107246 -0.0975,-0.09752 -0.4605,0.0082 -0.80661,0.23501 -0.34611,0.226779 -2.55827,1.580709 -4.91591,3.008732 -2.35765,1.428023 -7.08459,4.296833 -10.50433,6.375134 -3.41974,2.0783 -7.31904,4.432956 -8.66511,5.23257 l -2.44739,1.453843 v 27.724057 c 0,24.85092 -0.0431,27.76715 -0.41578,28.13984 -0.35684,0.35684 -1.39943,0.41577 -7.35542,0.41577 -5.04472,0 -7.02633,-0.0867 -7.25714,-0.3175 -0.24115,-0.24116 -0.3175,-4.97093 -0.3175,-19.67045 0,-18.10305 0.0299,-19.37872 0.46302,-19.75183 0.25466,-0.21938 2.18943,-1.4455 4.29948,-2.72472 2.11005,-1.27921 4.22341,-2.61251 4.69636,-2.96288 l 0.85989,-0.63705 v -3.16154 c 0,-1.76642 -0.10828,-3.16153 -0.24539,-3.16153 -0.24045,0 -14.91313,8.7852 -15.56346,9.31855 -0.26019,0.21339 -0.33073,5.42769 -0.33073,24.44822 v 24.17698 h 13.35642 13.35641 z"
       transform="translate(-44.984183,16.342182)"
       id="path2081" /><path
       style="fill:#6886bb;fill-opacity:1;stroke-width:0.264583"
       d="m 73.28283,134.5582 0.0675,-24.49723 8.05714,-4.87094 c 4.43143,-2.67902 8.15584,-4.77224 8.27647,-4.65161 0.12063,0.12062 0.18585,1.75713 0.14494,3.63668 l -0.0744,3.41736 -5.09323,3.13292 -5.09323,3.13291 v 19.39526 c 0,17.44187 0.0421,19.41144 0.41852,19.55587 0.23018,0.0883 3.37683,0.1606 6.99256,0.1606 5.62362,0 6.63415,-0.0601 6.98981,-0.41578 0.37267,-0.37266 0.41578,-3.28003 0.41578,-28.04208 V 96.885903 l 0.99219,-0.64038 c 0.5457,-0.35221 4.68312,-2.871123 9.19427,-5.597581 4.51114,-2.726458 10.30908,-6.236492 12.8843,-7.800075 2.57522,-1.563583 4.74811,-2.776985 4.82864,-2.69645 0.0805,0.08053 0.14643,16.354806 0.14643,36.165043 0,27.66169 0.0737,36.09227 0.3175,36.33611 0.36997,0.36997 13.60535,0.45681 14.17873,0.093 0.18755,-0.11899 0.35819,-0.50412 0.37919,-0.85584 0.021,-0.35172 0.0164,-10.37285 -0.0103,-22.26917 -0.0348,-15.54787 -0.13045,-21.62969 -0.34002,-21.62969 -0.16035,0 -2.38042,1.25621 -4.93347,2.79159 -2.55306,1.53537 -4.80669,2.72836 -5.00806,2.65109 -0.29088,-0.11162 -0.35091,-0.83504 -0.29205,-3.5192 l 0.0741,-3.37869 8.20208,-4.94518 c 4.51115,-2.719847 8.35091,-4.952267 8.53281,-4.960937 0.26281,-0.0125 0.33073,6.396387 0.33073,31.205077 v 31.22083 h -13.75733 -13.75732 l -0.0671,-33.80052 c -0.062,-31.203101 -0.10066,-33.798041 -0.50311,-33.768282 -0.23978,0.01773 -3.72211,2.041793 -7.73853,4.497915 l -7.30258,4.465677 -5.3e-4,28.88409 c -2.6e-4,15.88625 -0.0728,29.07243 -0.16113,29.30261 -0.14356,0.37412 -1.60317,0.41851 -13.7597,0.41851 H 73.21532 Z"
       id="path2079"
       transform="translate(-44.984183,16.342182)" /><path
       id="path2029"
       style="fill:#6886bb;fill-opacity:1;stroke-width:0.264583"
       transform="translate(-44.984183,16.342182)"
       d="m 122.95972,196.75421 c -0.66578,-0.51287 -1.65715,-0.99465 -2.24896,-1.09292 -0.71225,-0.11827 -1.37237,-0.48775 -2.01869,-1.1299 -2.20173,-2.18752 -1.93884,-7.6352 0.45949,-9.52173 0.47715,-0.37532 1.08731,-0.55418 1.89059,-0.55418 3.49137,0 5.08027,5.94634 2.57525,9.63769 -0.36173,0.53303 -0.65768,1.0671 -0.65768,1.18682 0,0.11972 0.47625,0.53284 1.05833,0.91805 1.09566,0.72507 1.40398,1.49156 0.59532,1.47999 -0.25467,-0.004 -0.99881,-0.41936 -1.65365,-0.92382 z m -0.4397,-3.03566 c 1.50199,-1.78502 1.49726,-5.89288 -0.009,-7.46465 -1.21122,-1.26423 -2.92827,-0.79503 -3.6807,1.00579 -0.53807,1.28779 -0.46341,4.23817 0.14093,5.56911 0.84937,1.87056 2.3966,2.25853 3.54835,0.88975 z m -49.23582,1.65939 c -0.24946,-0.0895 -0.33073,-1.40656 -0.33073,-5.35995 0,-5.72814 -0.0474,-5.56251 1.59191,-5.56251 1.93391,0 2.96706,1.08963 2.96706,3.12926 0,2.11558 -0.99386,3.48533 -2.52889,3.48533 -0.81408,0 -0.97175,0.4088 -0.97175,2.51956 0,1.69823 -0.12465,2.0046 -0.7276,1.78831 z m 2.45942,-5.75106 c 1.31928,-1.31927 0.61904,-4.03042 -0.98239,-3.8036 -0.55663,0.0788 -0.62508,0.24198 -0.69813,1.66389 -0.14381,2.79907 0.36866,3.45157 1.68052,2.13971 z m 7.8241,5.50965 c -1.11927,-0.78397 -1.35383,-1.874 -1.35383,-6.29131 0,-2.25166 0.10557,-4.15917 0.2346,-4.23892 0.57871,-0.35766 0.78992,0.77185 0.87034,4.65445 0.0751,3.62365 0.14819,4.20562 0.58971,4.69278 0.70958,0.78292 1.84259,0.7195 2.51948,-0.14102 0.49663,-0.63137 0.54837,-1.05365 0.54837,-4.47628 0,-3.98659 0.0941,-4.61616 0.68976,-4.61616 0.53069,0 0.53038,7.8318 -3.7e-4,9.10204 -0.47542,1.13787 -1.3605,1.74587 -2.54148,1.74587 -0.51732,0 -1.21778,-0.19415 -1.55658,-0.43145 z m 9.81158,0.11395 c -0.44756,-0.44756 -0.44756,-10.02993 0,-10.4775 0.17463,-0.17462 0.76434,-0.3175 1.31047,-0.3175 2.54232,0 3.55423,1.77384 2.32269,4.07161 l -0.54725,1.02105 0.71302,0.74424 c 1.30224,1.35925 0.85142,4.07301 -0.80739,4.86017 -1.03954,0.49329 -2.54683,0.54264 -2.99154,0.0979 z m 2.99018,-1.535 c 0.67818,-0.74939 0.42839,-2.33847 -0.47294,-3.00864 -1.11734,-0.83077 -1.62375,-0.36879 -1.72522,1.57385 -0.062,1.18666 0.0189,1.62584 0.34303,1.86286 0.52134,0.38121 1.28147,0.20581 1.85513,-0.42807 z m -0.74167,-4.8947 c 0.70091,-0.49093 1.00958,-1.7647 0.60903,-2.51315 -0.22703,-0.4242 -0.50419,-0.54033 -1.1421,-0.47854 -0.77173,0.0748 -0.8494,0.16817 -0.92687,1.11472 -0.17031,2.08078 0.30201,2.68802 1.45994,1.87697 z m 7.39997,6.57081 c -0.22895,-0.22893 -0.23114,-10.52858 -0.002,-10.75742 0.0958,-0.0957 0.33387,-0.0415 0.52916,0.12059 0.27205,0.22571 0.35516,1.36428 0.35516,4.86419 0,5.06898 -0.0667,4.8907 1.82963,4.8907 1.15335,0 1.45914,0.20557 1.04609,0.70326 -0.30619,0.36894 -3.41937,0.51698 -3.75766,0.17868 z m 8.621,-0.0137 c -0.24954,-0.0895 -0.33073,-1.41222 -0.33073,-5.38825 0,-5.09323 0.0177,-5.26962 0.52917,-5.26962 0.51148,0 0.52917,0.17639 0.52917,5.27605 0,2.90183 -0.0893,5.32654 -0.19844,5.38825 -0.10914,0.0617 -0.34727,0.0588 -0.52917,-0.006 z m 19.27936,-0.24141 c -1.11927,-0.78397 -1.35384,-1.874 -1.35384,-6.29131 0,-2.25166 0.10557,-4.15917 0.23461,-4.23892 0.57871,-0.35766 0.78992,0.77185 0.87033,4.65445 0.0751,3.62365 0.14819,4.20562 0.58972,4.69278 0.64567,0.71241 1.78571,0.7125 2.43152,2e-4 0.43841,-0.48355 0.52125,-1.11177 0.63632,-4.82559 0.11757,-3.79456 0.18382,-4.27953 0.59531,-4.35827 0.42498,-0.0813 0.46303,0.25065 0.46303,4.04034 0,4.45432 -0.23254,5.54093 -1.35384,6.32632 -0.3388,0.2373 -1.03926,0.43145 -1.55658,0.43145 -0.51733,0 -1.21779,-0.19415 -1.55658,-0.43145 z m 9.82222,0.12459 c -0.50617,-0.50617 -0.46309,-10.09968 0.0473,-10.52323 0.21613,-0.17937 0.97277,-0.27731 1.78346,-0.23083 1.09177,0.0626 1.42783,0.18472 1.49608,0.54374 0.0687,0.36133 -0.0944,0.46302 -0.74252,0.46302 -1.45071,0 -1.85409,0.39345 -1.85409,1.80847 0,1.52846 0.32154,1.89569 1.65982,1.89569 0.83305,0 1.0084,0.0866 0.93707,0.46302 -0.0625,0.32986 -0.3905,0.48772 -1.14045,0.54888 -0.57898,0.0472 -1.14172,0.22582 -1.25052,0.39688 -0.1088,0.17106 -0.19964,0.99144 -0.20187,1.82306 -0.005,1.74745 0.31601,2.05983 2.11462,2.05983 0.90023,0 1.07942,0.0824 1.00685,0.46302 -0.0714,0.37448 -0.41712,0.47771 -1.80792,0.53981 -1.10981,0.0496 -1.83602,-0.0396 -2.04779,-0.25136 z m -13.02471,-16.63501 c -0.79848,-0.57738 -1.72713,-1.04979 -2.06366,-1.04979 -1.73388,0 -3.01096,-1.53193 -3.4892,-4.18549 -0.54263,-3.01084 0.42374,-5.70345 2.43712,-6.79058 0.90327,-0.48773 1.05231,-0.49712 2.09813,-0.13229 0.79326,0.27673 1.36202,0.72979 1.92558,1.53388 1.40345,2.00246 1.2642,6.12739 -0.27573,8.16776 -0.34962,0.46323 -0.63567,0.90803 -0.63567,0.98843 0,0.0804 0.47625,0.46136 1.05833,0.84657 0.60677,0.40153 1.05834,0.91115 1.05834,1.19438 0,0.73092 -0.49625,0.5964 -2.11324,-0.57287 z m -0.5337,-2.86007 c 2.62413,-2.62413 0.89338,-9.62374 -2.02562,-8.19218 -1.18549,0.5814 -1.72036,1.57585 -1.87347,3.48326 -0.17968,2.2385 0.28537,3.94345 1.31103,4.80649 1.01113,0.85081 1.6643,0.82619 2.58806,-0.0976 z m -53.82665,1.21496 c -0.45918,-0.40436 -0.60247,-0.70939 -0.44674,-0.95099 0.18929,-0.29365 0.37423,-0.28072 1.06052,0.0742 1.0017,0.518 1.79193,0.21451 2.04266,-0.78447 0.2637,-1.05069 -0.077,-1.85357 -1.45477,-3.428 -0.76862,-0.87834 -1.36233,-1.84457 -1.46293,-2.38083 -0.3859,-2.057 1.43464,-3.8935 2.99272,-3.01897 0.37918,0.21283 0.72855,0.59012 0.77637,0.83842 0.075,0.38938 -0.0746,0.42932 -1.08772,0.29045 -1.32159,-0.18114 -1.60046,0.0469 -1.5654,1.27989 0.0146,0.51421 0.42492,1.24476 1.2252,2.1815 0.66177,0.77461 1.32435,1.72699 1.4724,2.1164 1.10376,2.90309 -1.45591,5.62857 -3.55231,3.78242 z m 31.53661,0.1794 c -0.68747,-0.37296 -0.92303,-0.88797 -0.56835,-1.24264 0.0876,-0.0876 0.56123,0.0324 1.05254,0.26673 0.83639,0.39885 0.92737,0.39514 1.42825,-0.0581 0.86727,-0.78486 0.7199,-2.3073 -0.33977,-3.5102 -1.78721,-2.02877 -2.03569,-2.47976 -2.03569,-3.69482 0,-0.94623 0.15073,-1.32603 0.77339,-1.94869 0.83787,-0.83786 1.32473,-0.94074 2.22056,-0.46921 1.27918,0.67331 1.12816,1.3857 -0.23936,1.12915 -2.10067,-0.39409 -2.29754,1.28834 -0.40396,3.45224 2.0196,2.30791 2.27642,4.66882 0.64728,5.9503 -0.80729,0.63502 -1.52951,0.67072 -2.53489,0.12529 z m 28.90573,0.0776 c -1.31893,-0.65903 -1.58664,-1.75445 -1.58709,-6.49411 -2.7e-4,-3.97069 0.0369,-4.31175 0.46261,-4.23034 0.41272,0.0789 0.47739,0.57228 0.59531,4.54129 0.12726,4.28344 0.15604,4.47196 0.75691,4.95794 1.01143,0.81804 1.94974,0.60837 2.56017,-0.57206 0.28612,-0.5533 0.38814,-1.73543 0.39114,-4.532 0.004,-3.71653 0.17525,-4.69237 0.76012,-4.3309 0.45217,0.27946 0.39244,7.86984 -0.0707,8.97819 -0.71986,1.72285 -2.35976,2.43586 -3.86852,1.68199 z m -52.25286,-0.235 c -0.0716,-0.19401 -0.16098,-2.3768 -0.19857,-4.85065 l -0.0684,-4.49792 -1.05834,-0.13229 c -0.70555,-0.0882 -1.05833,-0.26458 -1.05833,-0.52917 0,-0.32371 0.52824,-0.41075 2.86544,-0.47218 2.62953,-0.0691 2.85803,-0.0364 2.77556,0.39687 -0.0628,0.33005 -0.4077,0.51201 -1.14565,0.60448 l -1.05577,0.13229 -0.13229,4.74087 c -0.0965,3.45956 -0.22164,4.77053 -0.46288,4.85065 -0.18183,0.0604 -0.38919,-0.0489 -0.46081,-0.24295 z m 3.83411,0.0528 c 0,-0.71755 2.76412,-9.96977 3.08194,-10.31604 0.22171,-0.24156 0.44096,-0.29096 0.5871,-0.13229 0.29133,0.31632 2.68096,9.37656 2.68096,10.16483 0,1.06076 -0.89369,0.51162 -1.27875,-0.78574 -0.19399,-0.65359 -0.39862,-1.33718 -0.45472,-1.51908 -0.12939,-0.41949 -2.66033,-0.44867 -2.91683,-0.0336 -0.10099,0.1634 -0.32412,0.84787 -0.49585,1.52104 -0.19681,0.7715 -0.47703,1.25569 -0.75804,1.30981 -0.2452,0.0472 -0.44581,-0.0468 -0.44581,-0.2089 z m 4.09204,-4.2274 c 0.24581,-0.39774 -0.68998,-3.78704 -0.96867,-3.50835 -0.35045,0.35044 -1.05722,3.19801 -0.86924,3.50216 0.20359,0.32941 1.63517,0.33423 1.83791,0.006 z m 5.29458,4.15262 c -0.067,-0.1819 -0.15254,-2.35479 -0.19014,-4.82864 l -0.0684,-4.49792 -1.05833,-0.13229 c -0.70556,-0.0882 -1.05833,-0.26458 -1.05833,-0.52917 0,-0.32351 0.52579,-0.41075 2.84427,-0.47197 2.70827,-0.0715 2.84427,-0.0494 2.84427,0.46302 0,0.44895 -0.17068,0.53812 -1.03003,0.53812 -0.69517,0 -1.08223,0.13606 -1.19062,0.41852 -0.0883,0.23018 -0.1606,2.43283 -0.1606,4.89479 0,3.84329 -0.0573,4.47627 -0.40518,4.47627 -0.22285,0 -0.45998,-0.14882 -0.52695,-0.33073 z m 5.59064,-0.0878 c -0.0883,-0.23018 -0.1606,-2.48263 -0.1606,-5.00544 0,-4.73961 0.0835,-5.42396 0.66146,-5.42396 0.578,0 0.66146,0.68435 0.66146,5.42396 0,4.7396 -0.0835,5.42395 -0.66146,5.42395 -0.18714,0 -0.41253,-0.18833 -0.50086,-0.41851 z m 12.48877,0.35237 c -0.0278,-0.0364 -0.11714,-2.20927 -0.19844,-4.82865 l -0.1478,-4.7625 -1.05834,-0.13229 c -0.70555,-0.0882 -1.05833,-0.26458 -1.05833,-0.52917 0,-0.32872 0.49977,-0.39687 2.91042,-0.39687 2.41065,0 2.91041,0.0682 2.91041,0.39687 0,0.27206 -0.33175,0.42388 -1.05489,0.48274 -0.5802,0.0472 -1.14393,0.22581 -1.25272,0.39687 -0.10881,0.17106 -0.19965,2.36485 -0.20188,4.87508 -0.003,3.87876 -0.0636,4.56406 -0.40092,4.56406 -0.21828,0 -0.41966,-0.0298 -0.44751,-0.0661 z m 5.66749,-5.2712 c 0.0609,-4.57244 0.13115,-5.37828 0.46856,-5.37828 0.33954,0 0.39687,0.76395 0.39687,5.28804 0,4.84971 -0.0388,5.29552 -0.46856,5.37828 -0.43783,0.0843 -0.46386,-0.26257 -0.39687,-5.28804 z m 22.54691,4.99847 c -0.0715,-0.18639 -0.0975,-2.5974 -0.0578,-5.35781 l 0.0722,-5.01894 h 1.71979 c 1.35231,0 1.71979,0.0848 1.71979,0.39687 0,0.27439 -0.36748,0.43771 -1.19062,0.52917 l -1.19063,0.13229 v 1.5875 c 0,1.49719 0.0376,1.59172 0.66146,1.66157 1.3429,0.15038 1.85208,0.34184 1.85208,0.69641 0,0.45817 -0.58003,0.68473 -1.75302,0.68473 h -0.91599 l 0.0777,1.91823 0.0777,1.91823 1.52135,0.0794 c 1.30487,0.0681 1.52136,0.15277 1.52136,0.59531 0,0.46589 -0.19339,0.51596 -1.99268,0.51596 -1.37562,0 -2.03295,-0.10494 -2.12272,-0.33887 z" /><path
       style="fill:#6886bb;fill-opacity:1;stroke-width:0.264583"
       d="m 73.27127,205.98119 c -0.045,-2.718 0.0112,-3.23758 0.3653,-3.37344 0.54706,-0.20993 69.52424,-0.20993 70.0713,0 0.35406,0.13586 0.41032,0.65544 0.3653,3.37344 l -0.0532,3.21284 -0.14522,-3.175 -0.14522,-3.175 H 108.67222 73.61493 l -0.14522,3.175 -0.14522,3.175 z"
       transform="translate(-44.984183,16.342182)"
       id="path302-4" /></g></svg>
